<svg xmlns="http://www.w3.org/2000/svg" viewBox="0 0 512 512" width="512" height="512">
  <defs>
    <linearGradient id="saltGradient" x1="0%" y1="0%" x2="100%" y2="100%">
      <stop offset="0%" style="stop-color:#e0f2fe;stop-opacity:1" />
      <stop offset="100%" style="stop-color:#1f2937;stop-opacity:1" />
    </linearGradient>
  </defs>

  <!-- Background circle -->
  <circle cx="256" cy="256" r="240" fill="url(#saltGradient)" stroke="#1f2937" stroke-width="16"/>

  <!-- Salt crystals -->
  <g fill="#ffffff" opacity="0.9">
    <!-- Large crystal -->
    <polygon points="256,120 280,160 232,160"/>
    <polygon points="256,120 280,160 280,200"/>
    <polygon points="256,120 232,160 232,200"/>
    <polygon points="280,160 232,160 256,200"/>

    <!-- Medium crystals -->
    <polygon points="180,200 200,220 160,220"/>
    <polygon points="332,200 352,220 312,220"/>
    <polygon points="180,312 200,332 160,332"/>
    <polygon points="332,312 352,332 312,332"/>

    <!-- Small crystals -->
    <polygon points="120,256 140,276 100,276"/>
    <polygon points="372,256 392,276 352,276"/>
  </g>

  <!-- Calculator symbol -->
  <g fill="#1f2937">
    <!-- Calculator body -->
    <rect x="200" y="300" width="112" height="140" rx="8" fill="#ffffff" stroke="#1f2937" stroke-width="2"/>

    <!-- Screen -->
    <rect x="210" y="310" width="92" height="40" rx="4" fill="#e0f2fe" stroke="#1f2937" stroke-width="1"/>
    <text x="256" y="335" text-anchor="middle" font-family="Arial, sans-serif" font-size="12" font-weight="bold" fill="#1f2937">SALT</text>

    <!-- Buttons -->
    <circle cx="225" cy="365" r="8" fill="#f3f4f6" stroke="#1f2937" stroke-width="1"/>
    <circle cx="256" cy="365" r="8" fill="#f3f4f6" stroke="#1f2937" stroke-width="1"/>
    <circle cx="287" cy="365" r="8" fill="#f3f4f6" stroke="#1f2937" stroke-width="1"/>

    <circle cx="225" cy="390" r="8" fill="#f3f4f6" stroke="#1f2937" stroke-width="1"/>
    <circle cx="256" cy="390" r="8" fill="#f3f4f6" stroke="#1f2937" stroke-width="1"/>
    <circle cx="287" cy="390" r="8" fill="#f3f4f6" stroke="#1f2937" stroke-width="1"/>

    <circle cx="225" cy="415" r="8" fill="#f3f4f6" stroke="#1f2937" stroke-width="1"/>
    <circle cx="256" cy="415" r="8" fill="#f3f4f6" stroke="#1f2937" stroke-width="1"/>
    <circle cx="287" cy="415" r="8" fill="#f3f4f6" stroke="#1f2937" stroke-width="1"/>
  </g>

  <!-- Plus symbol overlay -->
  <g fill="#1f2937">
    <rect x="248" y="240" width="16" height="4" rx="2"/>
    <rect x="252" y="236" width="4" height="16" rx="2"/>
  </g>
</svg>